# xmcd CD database file
#
# Track frame offsets:
#	150
#	24721
#	49154
#	81047
#	107935
#	129423
#	160508
#	199652
#	221687
#	246225
#
# Disc length: 3511 seconds
#
# Revision: 1
# Processed by: cddbd v1.5.1PL2 Copyright (c) Steve Scherf et al.
# Submitted via: CDex 1.51
#
DISCID=850db50a
DTITLE=Herbie Hancock - Possibilities
DYEAR=2005
DGENRE=Jazz
TTITLE0=Stitched Up (featuring John Mayer)
TTITLE1=Safiatou (featuring Santana and Angelique Kidjo)
TTITLE2=A Song For You  (featuring Christina Aguilera)
TTITLE3=I Do It For Your Love (featuring Paul Simon)
TTITLE4=Hush, Hush, Hush (featuring Annie Lennox)
TTITLE5=Sister Moon (featuring Sting)
TTITLE6=When Love Comes To Town (featuring Jonny Lang and Joss Stone)
TTITLE7=Don't Explain (featuring Damien Rice and Lisa Hannigan)
TTITLE8=I Just Called To Say I Love You (featuring Raul Midon)
TTITLE9=Gelo Na Montanha (featuring Trey Anastasio)
EXTD=YEAR: 2005
EXTT0=
EXTT1=
EXTT2=
EXTT3=
EXTT4=
EXTT5=
EXTT6=
EXTT7=
EXTT8=
EXTT9=
PLAYORDER=
